<?xml version="1.0" standalone="no"?>
<!DOCTYPE svg PUBLIC "-//W3C//DTD SVG 20010904//EN"
 "http://www.w3.org/TR/2001/REC-SVG-20010904/DTD/svg10.dtd">
<svg version="1.0" xmlns="http://www.w3.org/2000/svg"
 width="256.000000pt" height="256.000000pt" viewBox="0 0 256.000000 256.000000"
 preserveAspectRatio="xMidYMid meet">
<metadata>
Created by potrace 1.11, written by Peter Selinger 2001-2013
</metadata>
<g transform="translate(0.000000,256.000000) scale(0.100000,-0.100000)"
fill="#000000" stroke="none">
<path d="M365 2292 c-76 -36 -146 -112 -175 -189 -20 -54 -21 -70 -18 -542 l3
-486 27 -56 c36 -72 87 -122 164 -160 l62 -31 378 7 c208 3 380 8 383 10 2 3
-2 12 -10 21 -13 16 -12 17 11 11 14 -4 61 -7 105 -7 l80 -1 291 -253 291
-254 26 34 c27 33 27 33 29 231 l2 198 6 -260 6 -260 0 286 -1 287 61 5 c116
9 220 80 269 183 l26 55 5 422 c3 232 7 437 9 455 2 17 0 32 -5 32 -5 0 -9 8
-8 18 0 28 -12 73 -28 105 -23 44 -97 112 -151 139 l-48 23 -865 3 -865 2 -60
-28z m1256 -208 c127 -184 171 -443 115 -666 -41 -162 -117 -318 -160 -326
-33 -7 -66 7 -66 28 0 11 13 52 29 92 95 241 98 533 6 773 -47 123 -45 144 17
145 21 0 34 -10 59 -46z m-653 -196 c12 -12 16 -95 6 -122 -5 -12 -21 -16 -70
-16 -72 0 -84 11 -84 75 0 63 13 75 78 75 32 0 63 -5 70 -12z m470 -210 c13
-13 16 -106 4 -126 -7 -9 -43 -12 -148 -10 l-139 3 -3 58 c-2 35 2 64 9 73 15
19 259 20 277 2z m-468 -213 c19 -23 6 -177 -18 -224 -19 -36 -73 -81 -98 -81
-7 0 -18 9 -24 20 -8 16 -4 25 25 54 44 45 47 80 6 94 -24 9 -29 17 -35 61
-10 76 2 91 73 91 40 0 63 -5 71 -15z"/>
</g>
</svg>
